<?xml version="1.0" encoding="UTF-8"?>
<svg version="1.1" xmlns="http://www.w3.org/2000/svg" width="367" height="370">
<path d="M0 0 C1.05263068 -0.00538554 2.10526137 -0.01077108 3.18978995 -0.01631981 C6.7048277 -0.03058774 10.21948825 -0.0234983 13.73454285 -0.01637268 C16.25971784 -0.02207689 18.78489025 -0.02904134 21.31005859 -0.03717041 C27.45021578 -0.05325017 33.59023448 -0.05520317 39.73040632 -0.04995751 C44.72393425 -0.04590962 49.71743199 -0.0473667 54.71095848 -0.05270576 C55.77863347 -0.0538284 55.77863347 -0.0538284 56.86787766 -0.05497371 C58.31406835 -0.05650526 59.76025903 -0.0580436 61.20644971 -0.05958868 C74.75822967 -0.0733057 88.30995185 -0.06788203 101.86173048 -0.05640347 C114.24371288 -0.04647558 126.62554576 -0.05940543 139.0075051 -0.08333766 C151.73741671 -0.10775598 164.46725877 -0.1173296 177.19719332 -0.11068493 C184.33758974 -0.1071983 191.47787125 -0.10938771 198.61824989 -0.12693596 C205.33490629 -0.14323875 212.05123239 -0.13843384 218.76789665 -0.11963081 C221.22888256 -0.1159486 223.68988965 -0.11904258 226.15085602 -0.1295166 C229.51878461 -0.14275299 232.88577328 -0.1311543 236.25366211 -0.11352539 C237.22002856 -0.1231304 238.186395 -0.1327354 239.18204528 -0.14263147 C248.780265 -0.03975786 257.5925647 2.59706552 264.61097527 9.36207485 C270.56893016 16.43483074 272.07679066 23.68857254 272.12150574 32.70774841 C272.14556929 33.88764564 272.16963284 35.06754286 272.19442558 36.28319454 C272.25453452 39.82671524 272.28744351 43.36851663 272.3049345 46.91240072 C272.31813189 49.5528127 272.33678257 52.19315465 272.35585785 54.83353043 C272.45407258 69.39238114 272.45934568 83.95096337 272.45163202 98.51008344 C272.44906845 104.87495798 272.45145645 111.2398312 272.45301819 117.60470581 C272.45494123 128.94523705 272.45187458 140.28575957 272.44675885 151.62628906 C272.44227464 161.88489132 272.44308516 172.14348228 272.44767761 182.40208435 C272.45303875 194.38301243 272.4550174 206.36393367 272.45206535 218.34486336 C272.45051174 224.66331786 272.4502841 230.98176459 272.45360184 237.30021858 C272.45649753 243.22581252 272.4544737 249.15138513 272.44870758 255.07697678 C272.44739012 257.2444944 272.44775681 259.41201383 272.44997025 261.57953072 C272.48025767 294.25799146 272.48025767 294.25799146 264.52433777 303.4618988 C256.98442153 310.64062145 248.58544084 311.8353178 238.48312378 311.81332397 C237.42626068 311.82279306 236.36939759 311.83226215 235.28050834 311.84201819 C231.75714898 311.86992202 228.23407561 311.87675791 224.71061707 311.88352966 C222.17706034 311.89910262 219.64351099 311.91591914 217.10997009 311.93388367 C210.95295039 311.9738948 204.79601128 311.99995483 198.63889464 312.01886117 C193.6310785 312.03444729 188.62331259 312.05544537 183.61553383 312.08024788 C182.54433211 312.08553355 182.54433211 312.08553355 181.45148996 312.09092601 C180.00046951 312.09809526 178.54944909 312.10527061 177.0984287 312.11245198 C163.50518175 312.17896864 149.9119175 312.22650531 136.3185747 312.26807214 C123.90169157 312.30660444 111.48504747 312.36805673 99.06831982 312.44050317 C86.29888121 312.51481564 73.52945477 312.57408698 60.75987083 312.61701208 C53.59874124 312.64133187 46.437752 312.67140979 39.27672386 312.71710014 C32.54042441 312.75987935 25.80437815 312.78129454 19.06793213 312.78858948 C16.60088763 312.79450308 14.13384821 312.80726019 11.66687965 312.8275013 C-14.25936674 313.0316932 -14.25936674 313.0316932 -21.68269348 308.38768005 C-22.17769348 306.90268005 -22.17769348 306.90268005 -22.68269348 305.38768005 C-23.28081848 305.09893005 -23.87894348 304.81018005 -24.49519348 304.51268005 C-28.91267095 302.2408345 -31.20136859 298.00530887 -33.05715954 293.52409446 C-34.31754925 289.21942836 -34.09648027 284.80067101 -34.07037354 280.3494873 C-34.07575907 279.24659172 -34.08114461 278.14369614 -34.08669335 277.00737947 C-34.10098644 273.31640547 -34.09386563 269.6257894 -34.08674622 265.93479919 C-34.09244906 263.2866706 -34.09931246 260.6385676 -34.10754395 257.990448 C-34.12472188 251.54703936 -34.12557409 245.10372829 -34.12033104 238.66030271 C-34.11628633 233.42216031 -34.11773647 228.18404671 -34.1230793 222.94590569 C-34.12420193 221.8267717 -34.12420193 221.8267717 -34.12534725 220.68502895 C-34.12687875 219.16925553 -34.1284171 217.65348212 -34.12996221 216.13770872 C-34.14368354 201.92982022 -34.13825209 187.72198682 -34.126777 173.51409959 C-34.11684435 160.52217617 -34.12978646 147.53039516 -34.15371119 134.5384937 C-34.17810602 121.19051216 -34.18770917 107.84259694 -34.18105847 94.49459356 C-34.17756718 87.00384119 -34.17979235 79.51319834 -34.19730949 72.02246284 C-34.21203627 65.64599682 -34.21266079 59.26971745 -34.19523858 52.89325506 C-34.18673004 49.64152677 -34.18674596 46.39020021 -34.19989014 43.13847733 C-34.21306542 39.60962207 -34.20158173 36.08167266 -34.18389893 32.55285645 C-34.19350393 31.53037798 -34.20310894 30.5078995 -34.21300501 29.45443684 C-34.11802773 20.2402655 -30.98717124 13.99237104 -24.68269348 7.38768005 C-16.8508908 1.29627797 -9.61590584 -0.05939214 0 0 Z M85.08683777 68.95018005 C81.41924577 72.17807485 78.25586296 75.48944315 75.31730652 79.38768005 C74.73593933 80.1456488 74.15457214 80.90361755 73.55558777 81.68455505 C69.0073428 87.8804289 65.51001621 94.40667874 62.31730652 101.38768005 C62.00922058 102.05154724 61.70113464 102.71541443 61.38371277 103.3993988 C53.53278329 122.15213708 54.22932543 145.59664505 61.81340027 164.3368988 C63.72384648 168.51510659 65.81188696 172.52093464 68.12590027 176.48924255 C69.31730652 179.38768005 69.31730652 179.38768005 68.68014526 181.26725769 C66.9639071 183.93752942 64.95923089 185.97684855 62.70329285 188.21287537 C62.23631989 188.67853409 61.76934692 189.14419281 61.28822327 189.6239624 C59.74647721 191.15922981 58.19787545 192.68739094 56.64933777 194.21580505 C55.56986318 195.28900208 54.49090689 196.36272066 53.41244507 197.43693542 C50.57033309 200.26575032 47.72271855 203.08895479 44.87345886 205.91056824 C40.33027628 210.41065356 35.7936524 214.91732248 31.26048851 219.42749786 C29.68605178 220.99182674 28.10818121 222.55262687 26.52990723 224.11308289 C21.72820471 228.87504781 17.03801941 233.67366317 12.66645813 238.83790588 C11.0340713 240.71303313 9.20714665 242.33036692 7.37980652 244.01268005 C3.37006696 248.59394357 3.38645914 253.19674935 3.69621277 259.0947113 C4.60113681 263.8925161 6.35209302 266.58279401 10.31730652 269.38768005 C15.65456342 272.1776098 22.53008552 272.38931959 28.34074402 270.8525238 C33.81848184 268.6638207 37.61579601 265.26924764 41.37028503 260.84812927 C45.67383355 255.89882138 50.30308182 251.31255996 54.96965027 246.70799255 C56.81548222 244.87478893 58.66118159 243.04145179 60.50675964 241.20799255 C63.39698278 238.34159398 66.28975175 235.47778303 69.18473816 232.61619568 C71.99322356 229.83949899 74.79387271 227.05496404 77.59465027 224.27049255 C78.46951584 223.40908661 79.34438141 222.54768066 80.24575806 221.66017151 C81.04401505 220.86529327 81.84227203 220.07041504 82.66471863 219.25144958 C83.37196579 218.55165985 84.07921295 217.85187012 84.80789185 217.13087463 C86.5355049 215.51999937 86.5355049 215.51999937 86.31730652 213.38768005 C86.89480652 213.14018005 87.47230652 212.89268005 88.06730652 212.63768005 C90.64670631 211.20468017 92.37852244 209.60343329 94.31730652 207.38768005 C94.31730652 206.72768005 94.31730652 206.06768005 94.31730652 205.38768005 C95.98793152 206.18432068 95.98793152 206.18432068 97.69230652 206.99705505 C121.81380921 218.27311817 144.12252644 220.93338489 169.64933777 212.25486755 C181.20877558 207.77354506 190.42132561 200.9102895 199.31730652 192.38768005 C200.18355652 191.58330505 201.04980652 190.77893005 201.94230652 189.95018005 C209.7011315 181.62143182 209.7011315 181.62143182 214.31730652 171.38768005 C214.97730652 171.38768005 215.63730652 171.38768005 216.31730652 171.38768005 C216.58285339 170.57943787 216.84840027 169.77119568 217.12199402 168.9384613 C217.47519714 167.86982849 217.82840027 166.80119568 218.19230652 165.70018005 C218.54035339 164.64443787 218.88840027 163.58869568 219.24699402 162.5009613 C220.31730652 159.38768005 220.31730652 159.38768005 221.33683777 157.15330505 C228.56804279 136.75612117 225.17143192 113.67665569 216.31730652 94.38768005 C214.25428877 90.48441174 211.94750254 86.92982564 209.31730652 83.38768005 C208.67664246 82.51498474 208.03597839 81.64228943 207.37590027 80.7431488 C196.57106008 66.6397664 181.50409338 56.03733652 164.31730652 51.38768005 C162.50552917 50.89461365 162.50552917 50.89461365 160.65715027 50.3915863 C133.68420016 44.21771675 106.26232298 51.46466712 85.08683777 68.95018005 Z " fill="#F24D8F" transform="translate(62.68269348144531,23.612319946289063)"/>
<path d="M0 0 C6.21580491 5.23436203 10.52214618 10.88930778 14.41015625 18 C15.00957031 19.07507813 15.00957031 19.07507813 15.62109375 20.171875 C20.68876456 30.30721663 22.40167057 41.90000931 20.41015625 53 C20.23355469 54.12277344 20.05695313 55.24554688 19.875 56.40234375 C17.01755384 72.16107375 8.647129 84.00957886 -4.22265625 93.47265625 C-16.99238524 101.71187083 -32.4279802 105.13371698 -47.390625 102.2734375 C-63.80618758 98.41956406 -75.89250149 90.85069727 -85.58984375 77 C-93.73091802 63.0409868 -95.74538548 46.92503009 -91.96484375 31.3125 C-87.37176158 15.79880289 -78.42817526 3.47668602 -64.58984375 -5 C-43.59758855 -16.37925006 -18.99322765 -14.66746992 0 0 Z " fill="#F24E8F" transform="translate(239.58984375,111)"/>
<path d="M0 0 C1.05263068 -0.00538554 2.10526137 -0.01077108 3.18978995 -0.01631981 C6.7048277 -0.03058774 10.21948825 -0.0234983 13.73454285 -0.01637268 C16.25971784 -0.02207689 18.78489025 -0.02904134 21.31005859 -0.03717041 C27.45021578 -0.05325017 33.59023448 -0.05520317 39.73040632 -0.04995751 C44.72393425 -0.04590962 49.71743199 -0.0473667 54.71095848 -0.05270576 C55.77863347 -0.0538284 55.77863347 -0.0538284 56.86787766 -0.05497371 C58.31406835 -0.05650526 59.76025903 -0.0580436 61.20644971 -0.05958868 C74.75822967 -0.0733057 88.30995185 -0.06788203 101.86173048 -0.05640347 C114.24371288 -0.04647558 126.62554576 -0.05940543 139.0075051 -0.08333766 C151.73741671 -0.10775598 164.46725877 -0.1173296 177.19719332 -0.11068493 C184.33758974 -0.1071983 191.47787125 -0.10938771 198.61824989 -0.12693596 C205.33490629 -0.14323875 212.05123239 -0.13843384 218.76789665 -0.11963081 C221.22888256 -0.1159486 223.68988965 -0.11904258 226.15085602 -0.1295166 C229.51878461 -0.14275299 232.88577328 -0.1311543 236.25366211 -0.11352539 C237.22002856 -0.1231304 238.186395 -0.1327354 239.18204528 -0.14263147 C248.780265 -0.03975786 257.5925647 2.59706552 264.61097527 9.36207485 C270.56893016 16.43483074 272.07679066 23.68857254 272.12150574 32.70774841 C272.14556929 33.88764564 272.16963284 35.06754286 272.19442558 36.28319454 C272.25453452 39.82671524 272.28744351 43.36851663 272.3049345 46.91240072 C272.31813189 49.5528127 272.33678257 52.19315465 272.35585785 54.83353043 C272.45407258 69.39238114 272.45934568 83.95096337 272.45163202 98.51008344 C272.44906845 104.87495798 272.45145645 111.2398312 272.45301819 117.60470581 C272.45494123 128.94523705 272.45187458 140.28575957 272.44675885 151.62628906 C272.44227464 161.88489132 272.44308516 172.14348228 272.44767761 182.40208435 C272.45303875 194.38301243 272.4550174 206.36393367 272.45206535 218.34486336 C272.45051174 224.66331786 272.4502841 230.98176459 272.45360184 237.30021858 C272.45649753 243.22581252 272.4544737 249.15138513 272.44870758 255.07697678 C272.44739012 257.2444944 272.44775681 259.41201383 272.44997025 261.57953072 C272.47546462 289.0865528 272.47546462 289.0865528 269.31730652 296.38768005 C268.35921121 293.51339414 268.19622842 291.75055401 268.20543194 288.76896095 C268.20614556 287.33817599 268.20614556 287.33817599 268.2068736 285.87848628 C268.21251492 284.82840651 268.21815624 283.77832675 268.22396851 282.69642639 C268.22593634 281.58258115 268.22790418 280.46873591 268.22993165 279.32113779 C268.23768286 275.5693655 268.25254659 271.81765368 268.26725769 268.06590271 C268.27408438 265.38395168 268.28049037 262.70200315 268.2862854 260.02005005 C268.29941701 254.2349665 268.31576083 248.44989932 268.33383751 242.66482925 C268.36201693 233.52268361 268.37869919 224.38053355 268.39331055 215.23835754 C268.3984351 212.11145205 268.40360907 208.98454664 268.4087801 205.85764122 C268.41006613 205.07617775 268.41135216 204.29471427 268.41267717 203.48957009 C268.42741328 194.59232244 268.44389314 185.69507853 268.46159363 176.7978363 C268.46401574 175.57769164 268.46401574 175.57769164 268.46648679 174.33289759 C268.49302817 161.14795576 268.53078477 147.96306484 268.57178219 134.77816112 C268.61350142 121.2461539 268.63993946 107.71417358 268.65299016 94.18210828 C268.66159269 85.83268987 268.68265191 77.4834884 268.71961889 69.13414656 C268.74387628 63.41351521 268.75358987 57.69297643 268.75179883 51.97229435 C268.75122041 48.67030853 268.75940064 45.36874753 268.78067017 42.06682014 C268.80272502 38.48858152 268.80028397 34.91117748 268.79159546 31.332901 C268.81009569 29.76447352 268.81009569 29.76447352 268.82896966 28.16436064 C268.79484875 23.71054126 268.77059901 21.13059464 266.41266346 17.26610374 C264.45930749 15.34866183 264.45930749 15.34866183 262.31730652 14.38768005 C262.06980652 13.78955505 261.82230652 13.19143005 261.56730652 12.57518005 C259.55485941 9.05339761 256.25340714 7.0016709 252.40824443 5.78226388 C250.13682383 5.35362091 248.04891406 5.26231181 245.73729992 5.26183891 C244.81751958 5.25923117 243.89773924 5.25662342 242.95008677 5.25393665 C241.94319357 5.25616737 240.93630038 5.25839809 239.89889526 5.26069641 C238.82644225 5.25913642 237.75398924 5.25757643 236.64903766 5.25596917 C233.04324821 5.25196979 229.43750061 5.25514477 225.83171082 5.25828552 C223.25137813 5.25693099 220.67104563 5.25515076 218.0907135 5.25297546 C211.80165953 5.24852498 205.51261748 5.24949117 199.22356304 5.2523881 C194.1112075 5.25464556 188.9988553 5.25495317 183.8864994 5.25386429 C183.15914242 5.25371106 182.43178543 5.25355782 181.68238733 5.25339995 C180.20478258 5.25308022 178.72717783 5.25275601 177.24957309 5.25242735 C163.3874918 5.24957452 149.52541712 5.2528562 135.66333691 5.25822772 C123.77268089 5.26269276 111.88203463 5.26192192 99.99137878 5.25730896 C86.18388817 5.25195487 72.37640336 5.24985217 58.56891185 5.25292122 C57.09579488 5.25323977 55.6226779 5.25355414 54.14956093 5.25386429 C53.06236683 5.2540957 53.06236683 5.2540957 51.95320922 5.25433179 C46.84936592 5.25519465 41.74552631 5.25373897 36.64168358 5.25138474 C29.76760434 5.24828368 22.89354383 5.25049856 16.0194664 5.25627899 C13.49552631 5.25760184 10.97158466 5.25722052 8.44764519 5.25501633 C5.00396537 5.25228613 1.56034474 5.255709 -1.8833313 5.26069641 C-2.88353233 5.25846569 -3.88373336 5.25623497 -4.91424352 5.25393665 C-9.95538741 5.26810868 -14.70952109 5.5753699 -19.68269348 6.38768005 C-20.67269348 6.38768005 -21.66269348 6.38768005 -22.68269348 6.38768005 C-15.95468365 0.50067145 -8.51196996 -0.05257374 0 0 Z " fill="#7E2C4B" transform="translate(62.68269348144531,23.612319946289063)"/>
<path d="M0 0 C1 2 1 2 0.07990456 5.43372345 C-1.3122757 10.64829947 -1.28874339 15.68989872 -1.2784729 21.0604248 C-1.2842653 22.15348513 -1.2900577 23.24654546 -1.29602563 24.37272882 C-1.31298847 28.02390668 -1.31589898 31.67495784 -1.31884766 35.32617188 C-1.32814838 37.94801136 -1.33831726 40.56984788 -1.34928894 43.19168091 C-1.37151811 48.83043383 -1.38655745 54.46916874 -1.39665604 60.10795593 C-1.41126721 68.2605991 -1.43681083 76.41317947 -1.46498732 84.56578571 C-1.51041107 97.794166 -1.54704411 111.02255536 -1.578125 124.25097656 C-1.60832865 137.09799795 -1.64268725 149.94499719 -1.68261719 162.79199219 C-1.68507874 163.58443122 -1.68754028 164.37687026 -1.69007643 165.1933226 C-1.70245138 169.16892069 -1.71490785 173.14451852 -1.72740483 177.12011623 C-1.83090647 210.08004744 -1.92013151 243.04000292 -2 276 C-2.99 276.33 -3.98 276.66 -5 277 C-5.04574622 242.65466665 -5.08100332 208.30934023 -5.10213066 173.96398301 C-5.10463217 169.91210516 -5.1072208 165.86022737 -5.10986328 161.80834961 C-5.1103879 161.00167055 -5.11091252 160.1949915 -5.11145304 159.36386762 C-5.12016315 146.29056851 -5.13593644 133.21728693 -5.15430559 120.14399823 C-5.17298782 106.73638771 -5.18411317 93.32878639 -5.18817699 79.92116338 C-5.19092554 71.64341411 -5.19961641 63.36571439 -5.21583293 55.08798037 C-5.22637913 49.4168682 -5.22960601 43.74578177 -5.22700275 38.0746605 C-5.22571776 34.79939398 -5.22881337 31.52423292 -5.23841095 28.24897766 C-5.24829643 24.70291732 -5.24599231 21.15707256 -5.24050903 17.61100769 C-5.24633472 16.56919017 -5.2521604 15.52737266 -5.25816262 14.45398492 C-5.25418052 13.50749497 -5.25019842 12.56100501 -5.24609566 11.58583355 C-5.2468551 10.7667768 -5.24761454 9.94772004 -5.24839699 9.10384339 C-5 7 -5 7 -3 4 C-2.34 4 -1.68 4 -1 4 C-0.67 2.68 -0.34 1.36 0 0 Z " fill="#B4497D" transform="translate(34,38)"/>
<path d="M0 0 C1.64486515 0.48638474 1.64486515 0.48638474 3.3229599 0.98259544 C8.50301444 2.26839721 13.51859222 2.28887543 18.8326416 2.2784729 C20.43548012 2.2871615 20.43548012 2.2871615 22.07069921 2.29602563 C25.63896058 2.31298441 29.20709227 2.31589863 32.77539062 2.31884766 C35.33811763 2.32814866 37.90084161 2.33831759 40.46356201 2.34928894 C45.97463591 2.37093331 51.48567418 2.38655648 56.9967804 2.39665604 C64.96480978 2.41126859 72.93277495 2.43681258 80.90076655 2.46498732 C93.82966066 2.51040859 106.75856405 2.54704264 119.6875 2.578125 C132.24350613 2.60832968 144.79948961 2.64268874 157.35546875 2.68261719 C158.12998581 2.68507874 158.90450287 2.68754028 159.70249015 2.69007643 C163.58818382 2.7024514 167.47387722 2.71490786 171.3595705 2.72740483 C203.57301624 2.83090275 235.78648672 2.92012901 268 3 C268 3.66 268 4.32 268 5 C235.1412184 5.2191507 202.28238833 5.41703622 169.42331463 5.58644359 C165.5431139 5.60646646 161.6629141 5.6266652 157.78271484 5.64697266 C157.0102441 5.65101251 156.23777336 5.65505237 155.44189441 5.65921465 C142.93772035 5.72502812 130.43367606 5.80508549 117.9296217 5.89041659 C105.09722464 5.97767096 92.26480754 6.04959577 79.43224335 6.10732102 C71.51522388 6.14341673 63.59846182 6.19143681 55.68161255 6.25476131 C49.60870887 6.30205508 43.53590423 6.32800932 37.46283531 6.34602928 C34.97314146 6.35675122 32.48346631 6.37438553 29.9938755 6.39944649 C26.59392084 6.4326371 23.19477337 6.44092736 19.79467773 6.4430542 C18.31799842 6.46636767 18.31799842 6.46636767 16.8114872 6.49015212 C10.47106277 6.45920854 6.4186377 5.35452173 1 2 C0.67 1.34 0.34 0.68 0 0 Z " fill="#A74875" transform="translate(44,330)"/>
<path d="M0 0 C3.39529917 1.41409423 5.05912817 3.02356228 7.1875 6 C7.95126953 7.051875 7.95126953 7.051875 8.73046875 8.125 C10.78656965 11.16170287 11.12557291 12.91499286 11.12863445 16.55090332 C11.1318589 17.5150692 11.13508335 18.47923508 11.1384055 19.4726181 C11.1368569 20.53932991 11.1353083 21.60604172 11.13371277 22.70507812 C11.13597833 23.83243629 11.13824388 24.95979446 11.14057809 26.121315 C11.14694269 29.92463688 11.14608716 33.72792336 11.14526367 37.53125 C11.14770855 40.2474786 11.15162709 42.96370467 11.15544128 45.67993164 C11.16375921 52.30714172 11.16649663 58.93434291 11.16705366 65.56155777 C11.16752822 70.94574358 11.16957995 76.32992645 11.17275429 81.71411133 C11.18156348 96.96532304 11.18617318 112.2165277 11.18542381 127.46774197 C11.18538386 128.29049649 11.1853439 129.11325102 11.18530273 129.9609375 C11.18526185 130.78469155 11.18522097 131.60844561 11.18517885 132.4571619 C11.18477216 145.81553938 11.19434677 159.1738887 11.2084411 172.53225803 C11.22278506 186.23486339 11.2297124 199.93745499 11.22884732 213.64006805 C11.2285147 221.33858936 11.23129043 229.03708114 11.24202538 236.7355957 C11.25110432 243.2887056 11.25332716 249.84177258 11.24651595 256.39488602 C11.24323765 259.74093686 11.24431529 263.08683758 11.2518692 266.43289185 C11.25951697 270.05364363 11.25499256 273.67417528 11.24723816 277.29492188 C11.25238172 278.36163368 11.25752529 279.42834549 11.26282471 280.5273819 C11.25822592 281.49154778 11.25362712 282.45571365 11.24888897 283.44909668 C11.24910634 284.28567558 11.24932371 285.12225449 11.24954766 285.98418427 C11 288 11 288 9 290 C9.00113916 289.41713154 9.00227832 288.83426307 9.003452 288.23373193 C9.0705395 253.71279719 9.12203601 219.19187543 9.15319599 184.67088939 C9.15694825 180.52888383 9.16083121 176.38687841 9.16479492 172.24487305 C9.16558185 171.4202503 9.16636878 170.59562756 9.16717956 169.74601624 C9.18024491 156.38171225 9.20390494 143.01744685 9.23145839 129.65316578 C9.25948122 115.9472333 9.27616964 102.24132107 9.28226548 88.53536111 C9.28638842 80.07332911 9.29942527 71.61140616 9.3237494 63.14940772 C9.33956809 57.3521402 9.34440917 51.55492931 9.34050413 45.75764176 C9.3385765 42.40938702 9.34322054 39.06147779 9.35761642 35.71323013 C9.37244373 32.08826218 9.36898913 28.4637688 9.36076355 24.83879089 C9.36950207 23.77362769 9.3782406 22.70846448 9.38724393 21.6110236 C9.38127078 20.64363328 9.37529764 19.67624296 9.36914349 18.67953777 C9.37028265 17.84225444 9.37142181 17.00497112 9.37259549 16.14231557 C8.91252109 13.49702175 7.95418652 12.76544463 6 11 C5.690625 10.05125 5.38125 9.1025 5.0625 8.125 C3.90908016 4.7325887 2.35389462 2.66774724 0 0 Z " fill="#CE598A" transform="translate(322,30)"/>
<path d="M0 0 C0.92907297 -0.00199105 1.85814595 -0.0039821 2.81537265 -0.00603348 C3.83773542 -0.00312064 4.86009819 -0.0002078 5.91344166 0.00279331 C6.99814631 0.00193889 8.08285096 0.00108446 9.20042545 0.00020415 C12.85330062 -0.00144954 16.50613037 0.00406895 20.15900135 0.00952244 C22.77024808 0.00980436 25.3814949 0.00964648 27.99274158 0.00907993 C33.62395356 0.00855512 39.25515396 0.01169747 44.88636303 0.01731777 C53.02818451 0.02543855 61.1700004 0.02804859 69.31182549 0.02930576 C82.52081567 0.03149537 95.72979968 0.038153 108.93878651 0.04760838 C121.77146848 0.05678484 134.60414879 0.06386453 147.43683338 0.06811619 C148.22759904 0.06837891 149.0183647 0.06864164 149.83309295 0.06891232 C153.80005992 0.07021734 157.7670269 0.07148105 161.73399389 0.07272422 C194.65341818 0.083094 227.57283492 0.10070985 260.4922533 0.12304783 C260.4922533 0.45304783 260.4922533 0.78304783 260.4922533 1.12304783 C259.6758949 1.12508262 259.6758949 1.12508262 258.8430444 1.12715852 C226.56789059 1.20785541 194.29278439 1.29882915 162.01769859 1.40309944 C158.14007644 1.41561791 154.26245402 1.42805075 150.38483143 1.44043064 C149.61288531 1.44289664 148.84093919 1.44536263 148.04560076 1.44790335 C135.55580577 1.48759811 123.06600177 1.52035996 110.57618059 1.55054764 C97.75498458 1.58169103 84.93382673 1.62031274 72.11267364 1.66583788 C64.205018 1.69368172 56.29739019 1.7157325 48.38969879 1.73031034 C42.32019191 1.74212522 36.2507682 1.76435824 30.18130398 1.79043102 C27.69572608 1.79948889 25.2101333 1.80519284 22.72453976 1.80726147 C19.32540209 1.81059659 15.92652447 1.82610827 12.52744007 1.84457493 C11.54881288 1.84264019 10.57018568 1.84070546 9.56190312 1.8387121 C4.04460872 1.88338065 -1.03478949 2.45410162 -6.41523373 3.69533789 C-8.5077467 4.12304783 -8.5077467 4.12304783 -11.5077467 4.12304783 C-7.67665067 1.08459236 -4.87740727 -0.00230392 0 0 Z " fill="#D85B99" transform="translate(51.50774669647217,25.876952171325684)"/>
<path d="M0 0 C0.495 0.99 0.495 0.99 1 2 C0.328125 3.91015625 0.328125 3.91015625 -0.75 6.0625 C-1.09546875 6.77535156 -1.4409375 7.48820313 -1.796875 8.22265625 C-3 10 -3 10 -6 11 C-5.505 12.98 -5.505 12.98 -5 15 C-5.99 15.33 -6.98 15.66 -8 16 C-8.66 15.67 -9.32 15.34 -10 15 C-9.505 16.485 -9.505 16.485 -9 18 C-9.886875 18.5775 -10.77375 19.155 -11.6875 19.75 C-13.82821092 21.16701905 -15.75223417 22.61546432 -17.75 24.25 C-20 26 -20 26 -22 26 C-22.66 27.65 -23.32 29.3 -24 31 C-25.98 31 -27.96 31 -30 31 C-30 31.66 -30 32.32 -30 33 C-40.29198433 37.06316816 -50.81609516 40.65787676 -62 40 C-58.44792396 37.98299199 -54.82491081 37.10639468 -50.875 36.125 C-36.26989975 32.33295289 -25.05874482 26.3224991 -14.09375 15.8203125 C-12 14 -12 14 -9 13 C-8.28738746 11.69064688 -7.62858872 10.35170206 -7 9 C-5.8237752 7.39267019 -4.6136253 5.80975038 -3.375 4.25 C-2.74335938 3.45078125 -2.11171875 2.6515625 -1.4609375 1.828125 C-0.97882813 1.22484375 -0.49671875 0.6215625 0 0 Z " fill="#D0578C" transform="translate(274,201)"/>
<path d="M0 0 C4.40622151 3.29390174 8.42818688 6.99166496 12.3984375 10.79296875 C12.0684375 11.45296875 11.7384375 12.11296875 11.3984375 12.79296875 C11.0271875 12.35984375 10.6559375 11.92671875 10.2734375 11.48046875 C7.88423201 9.33018381 5.27835919 8.20354264 2.3984375 6.79296875 C-1.3770727 4.24194834 -1.3770727 4.24194834 -2.6015625 1.79296875 C-4.77691982 0.95176487 -4.77691982 0.95176487 -7.3515625 0.29296875 C-10.06443506 -0.46678905 -12.58242243 -1.19862829 -15.1640625 -2.33203125 C-18.87619104 -3.66459021 -22.68810149 -3.88304101 -26.6015625 -4.20703125 C-26.6015625 -4.53703125 -26.6015625 -4.86703125 -26.6015625 -5.20703125 C-32.5415625 -5.53703125 -38.4815625 -5.86703125 -44.6015625 -6.20703125 C-44.6015625 -6.53703125 -44.6015625 -6.86703125 -44.6015625 -7.20703125 C-29.62073128 -10.85582777 -12.9223052 -8.35012745 0 0 Z " fill="#993C63" transform="translate(234.6015625,107.20703125)"/>
<path d="M0 0 C0.66 0.33 1.32 0.66 2 1 C1.566875 2.77890625 1.566875 2.77890625 1.125 4.59375 C-3.47518183 24.26934978 -3.95094615 44.64820581 5.30175781 63.17211914 C5.53217773 63.77531982 5.76259766 64.37852051 6 65 C5.505 65.99 5.505 65.99 5 67 C4.34 65.35 3.68 63.7 3 62 C2.34 62 1.68 62 1 62 C0.87882812 61.43152344 0.75765625 60.86304688 0.6328125 60.27734375 C-0.96878409 51.91856965 -0.96878409 51.91856965 -4.03930664 44.06616211 C-5.74498501 40.39776158 -5.4258864 36.54995775 -5.4375 32.5625 C-5.44136719 31.64831299 -5.44523437 30.73412598 -5.44921875 29.79223633 C-5.28073532 19.50333959 -2.83311908 9.84207484 0 0 Z " fill="#9F416A" transform="translate(122,128)"/>
<path d="M0 0 C0.93423645 3.01031744 1.04449911 3.86650268 0 7 C-2.10418575 13.862158 -2.30120558 20.22328785 -2.25 27.375 C-2.25773438 28.4475 -2.26546875 29.52 -2.2734375 30.625 C-2.25715932 37.31533047 -1.597906 43.50099964 0 50 C0.66 50 1.32 50 2 50 C2.66 52.64 3.32 55.28 4 58 C-3.4638337 51.17228849 -5.41202403 39.19854189 -6.32421875 29.58203125 C-6.65269339 19.55789147 -4.90671466 8.88513195 0 0 Z " fill="#8B365C" transform="translate(152,131)"/>
<path d="M0 0 C3.80795952 1.26931984 7.27661967 3.05111223 10.8125 4.9375 C9.8225 5.2675 8.8325 5.5975 7.8125 5.9375 C7.1525 5.6075 6.4925 5.2775 5.8125 4.9375 C4.27581135 4.71282169 2.73281946 4.52953195 1.1875 4.375 C0.37023437 4.29121094 -0.44703125 4.20742187 -1.2890625 4.12109375 C-1.91554687 4.06050781 -2.54203125 3.99992188 -3.1875 3.9375 C-3.5175 5.2575 -3.8475 6.5775 -4.1875 7.9375 C-4.8475 7.9375 -5.5075 7.9375 -6.1875 7.9375 C-6.435 8.55625 -6.6825 9.175 -6.9375 9.8125 C-8.42490369 12.34108627 -9.62428009 12.65589004 -12.1875 13.9375 C-12.88901152 15.2528341 -13.55275925 16.58867592 -14.1875 17.9375 C-16.1875 20.1875 -16.1875 20.1875 -18.1875 21.9375 C-18.8475 21.9375 -19.5075 21.9375 -20.1875 21.9375 C-20.8475 23.2575 -21.5075 24.5775 -22.1875 25.9375 C-23.5075 25.6075 -24.8275 25.2775 -26.1875 24.9375 C-25.76452637 24.51976318 -25.34155273 24.10202637 -24.90576172 23.67163086 C-22.95526697 21.74216929 -21.00887458 19.80861744 -19.0625 17.875 C-18.39734375 17.21822266 -17.7321875 16.56144531 -17.046875 15.88476562 C-13.35961519 12.21558062 -9.83947963 8.48578486 -6.51611328 4.48266602 C-2.59786408 -0.07422469 -2.59786408 -0.07422469 0 0 Z " fill="#B64B7B" transform="translate(159.1875,229.0625)"/>
<path d="M0 0 C3.39529917 1.41409423 5.05912817 3.02356228 7.1875 6 C7.95126953 7.051875 7.95126953 7.051875 8.73046875 8.125 C11.44595062 12.13555784 11.13401747 15.69455753 11.11352539 20.39697266 C11.11367142 21.26533249 11.11381744 22.13369232 11.1139679 23.02836609 C11.11326961 25.90695672 11.1054811 28.78548314 11.09765625 31.6640625 C11.09579177 33.65660568 11.09436801 35.64914931 11.09336853 37.64169312 C11.08954569 42.89259094 11.07971737 48.14346122 11.06866455 53.39434814 C11.05844543 58.74987414 11.05386983 64.10540457 11.04882812 69.4609375 C11.03809491 79.97397045 11.02102127 90.48698294 11 101 C10.67 101 10.34 101 10 101 C9.99120064 99.37507881 9.99120064 99.37507881 9.98222351 97.71733093 C9.92506738 87.51983026 9.85234325 77.3225443 9.76428509 67.12526226 C9.71951373 61.88243324 9.68027261 56.63968314 9.65356445 51.39672852 C9.62759887 46.33914463 9.58724462 41.28186338 9.53681374 36.22446632 C9.52009926 34.29276093 9.5086136 32.36100313 9.50238609 30.42923546 C9.49279466 27.72813388 9.46479563 25.02781463 9.43237305 22.3269043 C9.43380814 21.52417587 9.43524323 20.72144745 9.4367218 19.89439392 C9.44424687 15.7222493 9.44424687 15.7222493 7.53157043 12.15925598 C7.02615219 11.77670151 6.52073395 11.39414703 6 11 C5.690625 10.05125 5.38125 9.1025 5.0625 8.125 C3.90908016 4.7325887 2.35389462 2.66774724 0 0 Z " fill="#CF598A" transform="translate(322,30)"/>
<path d="M0 0 C1.21782417 -0.002062 1.21782417 -0.002062 2.46025085 -0.00416565 C3.34713593 -0.00057037 4.234021 0.0030249 5.14778137 0.00672913 C6.08456223 0.0065831 7.02134308 0.00643707 7.98651123 0.00628662 C11.08692225 0.00698401 14.18727341 0.01476834 17.28767395 0.02259827 C19.43572965 0.02446306 21.58378577 0.02588667 23.73184204 0.02688599 C29.38879061 0.03070632 35.04571355 0.0405325 40.70265198 0.05158997 C46.47382765 0.06181447 52.24500746 0.06638584 58.01618958 0.07142639 C69.34237272 0.08215518 80.66853683 0.09922582 91.9947052 0.12025452 C91.9947052 0.45025452 91.9947052 0.78025452 91.9947052 1.12025452 C90.33672409 1.1323848 90.33672409 1.1323848 88.64524841 1.14476013 C78.19980073 1.2224354 67.75447987 1.31022781 57.30919838 1.4077816 C51.93990764 1.45760687 46.57063526 1.50393765 41.20124817 1.54212952 C36.01401953 1.57915683 30.82694993 1.62556307 25.63985825 1.67831802 C23.66648031 1.69676963 21.69306841 1.7119112 19.71963882 1.72359848 C16.94348816 1.74061998 14.16769445 1.7696914 11.39167786 1.80140686 C10.18325729 1.80464714 10.18325729 1.80464714 8.95042419 1.80795288 C3.8475879 1.88183603 -0.87631617 2.56861127 -5.85518837 3.693964 C-8.0052948 4.12025452 -8.0052948 4.12025452 -11.0052948 4.12025452 C-7.37348111 1.23985055 -4.64525534 -0.00607223 0 0 Z " fill="#D95B99" transform="translate(51.00529479980469,25.879745483398438)"/>
<path d="M0 0 C-0.65226562 0.25394531 -1.30453125 0.50789063 -1.9765625 0.76953125 C-4.6595921 1.82612255 -7.32992285 2.91115295 -10 4 C-11.093125 4.433125 -12.18625 4.86625 -13.3125 5.3125 C-17.76454901 8.10797263 -20.35077272 12.05231817 -22 17 C-22.61875 17.12375 -23.2375 17.2475 -23.875 17.375 C-26.95657898 18.28134676 -27.39219199 20.29888255 -29 23 C-30.65261839 24.02304948 -32.31791365 25.02616054 -34 26 C-34.33 26.99 -34.66 27.98 -35 29 C-35.66 29 -36.32 29 -37 29 C-33.81293952 17.73795208 -24.72606511 9.91035232 -15 4 C-4.5667272 -1.68470911 -4.5667272 -1.68470911 0 0 Z " fill="#873559" transform="translate(190,102)"/>
<path d="M0 0 C0.99 0.33 1.98 0.66 3 1 C-0.33785328 8.56917234 -7.67161347 14.42182066 -15 18 C-15.66 18 -16.32 18 -17 18 C-17.33 17.01 -17.66 16.02 -18 15 C-16.68 14.34 -15.36 13.68 -14 13 C-14.33 12.34 -14.66 11.68 -15 11 C-12.32424654 7.53726023 -9.07176162 7.16336046 -5 6 C-3.22722741 4.47992158 -3.22722741 4.47992158 -2 3 C-1.34 3 -0.68 3 0 3 C0 2.01 0 1.02 0 0 Z " fill="#BF467A" transform="translate(246,189)"/>
<path d="M0 0 C0.66 0 1.32 0 2 0 C2 1.32 2 2.64 2 4 C-0.42736993 4.74611781 -2.85733112 5.48045016 -5.29296875 6.19921875 C-7.47163612 6.84370188 -9.64329682 7.51184655 -11.8125 8.1875 C-17.37067074 9.54565671 -23.32898879 9.54621638 -29 9 C-29.66 8.34 -30.32 7.68 -31 7 C-29.31970703 6.92652344 -29.31970703 6.92652344 -27.60546875 6.8515625 C-26.13278797 6.77652144 -24.66013293 6.70097418 -23.1875 6.625 C-22.44951172 6.5940625 -21.71152344 6.563125 -20.95117188 6.53125 C-17.18106885 6.32653852 -15.20349259 6.13566173 -12 4 C-9.95130926 3.55570562 -7.88545707 3.18705805 -5.8125 2.875 C-4.72582031 2.70742187 -3.63914063 2.53984375 -2.51953125 2.3671875 C-1.68808594 2.24601563 -0.85664063 2.12484375 0 2 C0 1.34 0 0.68 0 0 Z " fill="#8E365D" transform="translate(225,205)"/>
<path d="M0 0 C5.55007795 -0.09938156 11.09963018 -0.1717096 16.65039062 -0.21972656 C18.53589916 -0.23975767 20.42134623 -0.26699073 22.30664062 -0.30175781 C25.02749862 -0.35065272 27.74753056 -0.37305382 30.46875 -0.390625 C31.30241089 -0.41127014 32.13607178 -0.43191528 32.99499512 -0.45318604 C40.219186 -0.45591352 45.81717249 1.63786999 51 6.75 C51.66 7.4925 52.32 8.235 53 9 C52.67 9.99 52.34 10.98 52 12 C50 11 50 11 49.25 9.1875 C47.23190491 5.65583359 43.91751967 3.59077633 40.05108643 2.39955139 C36.50419417 1.7086172 32.89945675 1.75787356 29.296875 1.68359375 C28.04019012 1.6524221 28.04019012 1.6524221 26.75811768 1.62062073 C24.08882644 1.5553745 21.41943902 1.49635642 18.75 1.4375 C16.93749016 1.39429106 15.12498995 1.35067601 13.3125 1.30664062 C8.87509791 1.19971871 4.43759932 1.09838134 0 1 C0 0.67 0 0.34 0 0 Z " fill="#F35AA2" transform="translate(275,27)"/>
<path d="M0 0 C2 2 2 2 2 5 C2.66 5 3.32 5 4 5 C6.24574076 9.34176547 7.12357203 12.64488705 7.09765625 17.54296875 C7.09443359 18.61611328 7.09121094 19.68925781 7.08789062 20.79492188 C7.07951172 21.91447266 7.07113281 23.03402344 7.0625 24.1875 C7.05798828 25.31865234 7.05347656 26.44980469 7.04882812 27.61523438 C7.03703498 30.41020927 7.0205765 33.2050782 7 36 C6.67 36 6.34 36 6 36 C5.88930176 35.22922119 5.77860352 34.45844238 5.66455078 33.66430664 C5.15489356 30.12985236 4.63998616 26.5961816 4.125 23.0625 C3.86396484 21.24395508 3.86396484 21.24395508 3.59765625 19.38867188 C2.64073009 12.84967648 1.53928975 6.42757476 0 0 Z " fill="#A7416D" transform="translate(281,119)"/>
<path d="M0 0 C2 1 2 1 2.78125 2.8984375 C6.4627284 15.58353155 7.46793784 25.9551857 5 39 C4.67 39 4.34 39 4 39 C3.98541748 38.28046143 3.97083496 37.56092285 3.95581055 36.81958008 C3.76534941 18.16686816 3.76534941 18.16686816 0 0 Z " fill="#6F2D4A" transform="translate(254,131)"/>
<path d="M0 0 C0.33 0.66 0.66 1.32 1 2 C0.328125 3.91015625 0.328125 3.91015625 -0.75 6.0625 C-1.09546875 6.77535156 -1.4409375 7.48820313 -1.796875 8.22265625 C-3 10 -3 10 -6 11 C-5.67 12.32 -5.34 13.64 -5 15 C-8 16 -8 16 -9.875 16.25 C-13.02925256 17.36326561 -14.76616276 19.58000965 -17 22 C-17.66 21.67 -18.32 21.34 -19 21 C-17.71451591 19.66070495 -16.42141845 18.32871357 -15.125 17 C-14.40570313 16.2575 -13.68640625 15.515 -12.9453125 14.75 C-11 13 -11 13 -9 13 C-8.74476563 12.43796875 -8.48953125 11.8759375 -8.2265625 11.296875 C-6.84307219 8.70613518 -5.20061417 6.54892155 -3.375 4.25 C-2.74335938 3.45078125 -2.11171875 2.6515625 -1.4609375 1.828125 C-0.97882813 1.22484375 -0.49671875 0.6215625 0 0 Z " fill="#72274A" transform="translate(274,201)"/>
<path d="M0 0 C0.33 0 0.66 0 1 0 C2.89425303 7.15192384 3.24602079 13.68488661 3.125 21.0625 C3.11597656 22.11888672 3.10695313 23.17527344 3.09765625 24.26367188 C3.0743167 26.84269253 3.04157775 29.4212199 3 32 C2.34 32 1.68 32 1 32 C1 33.98 1 35.96 1 38 C0.67 38 0.34 38 0 38 C0 25.46 0 12.92 0 0 Z " fill="#E5639E" transform="translate(287,138)"/>
<path d="M0 0 C0.66 0.33 1.32 0.66 2 1 C1.67 2.32 1.34 3.64 1 5 C0.34 5 -0.32 5 -1 5 C-1.1340625 6.02222656 -1.268125 7.04445312 -1.40625 8.09765625 C-1.94110807 11.61294056 -2.67053308 14.9827703 -3.5 18.4375 C-5.22968598 26.27593061 -5.69890882 34.00550997 -6 42 C-6.33 42 -6.66 42 -7 42 C-7.02718316 39.14576808 -7.04692705 36.29179985 -7.0625 33.4375 C-7.07087891 32.63763672 -7.07925781 31.83777344 -7.08789062 31.01367188 C-7.10740557 26.23250962 -6.88405525 21.70465767 -6 17 C-5.67 16.67 -5.34 16.34 -5 16 C-4.67708203 14.63200204 -4.39165725 13.25506824 -4.125 11.875 C-3.22301609 7.60424286 -1.84755058 3.94703988 0 0 Z " fill="#E95F9B" transform="translate(123,123)"/>
<path d="M0 0 C6.19887485 -0.37952295 10.4477112 0.1647887 16 3 C16 3.66 16 4.32 16 5 C13.03 4.34 10.06 3.68 7 3 C6.67 3.66 6.34 4.32 6 5 C3.93359375 5.6328125 3.93359375 5.6328125 1.4375 6.125 C0.61121094 6.29257813 -0.21507812 6.46015625 -1.06640625 6.6328125 C-1.70449219 6.75398437 -2.34257812 6.87515625 -3 7 C-3 6.01 -3 5.02 -3 4 C-2.34 3.67 -1.68 3.34 -1 3 C-0.67 2.01 -0.34 1.02 0 0 Z " fill="#ED5595" transform="translate(156,233)"/>
<path d="M0 0 C3.70350652 1.31941502 6.49138044 2.92878651 9.5625 5.375 C10.30628906 5.96023437 11.05007812 6.54546875 11.81640625 7.1484375 C13.99830346 8.99856143 16.00754579 10.94881131 18 13 C17.67 13.66 17.34 14.32 17 15 C16.443125 14.3503125 16.443125 14.3503125 15.875 13.6875 C13.48579451 11.53721506 10.87992169 10.41057389 8 9 C4.2244898 6.44897959 4.2244898 6.44897959 3 4 C2.34 3.67 1.68 3.34 1 3 C0.67 2.01 0.34 1.02 0 0 Z " fill="#8D3A5E" transform="translate(229,105)"/>
<path d="M0 0 C0.66 0.33 1.32 0.66 2 1 C-1.48074188 5.36008719 -5.03320653 6.14313252 -10.25 7.25 C-11.33861328 7.50910156 -11.33861328 7.50910156 -12.44921875 7.7734375 C-17.39503944 8.88426354 -21.93507051 9.16042763 -27 9 C-23.41482133 6.96296666 -19.73357925 6.06645874 -15.75 5.0625 C-11.47543586 3.9710231 -7.28810333 2.83378274 -3.1875 1.1875 C-2.135625 0.795625 -1.08375 0.40375 0 0 Z " fill="#722847" transform="translate(239,232)"/>
<path d="M0 0 C0.66 0 1.32 0 2 0 C0.89545164 2.48523381 -0.14751354 4.1565913 -2.03125 6.15625 C-4.47462843 9.68557441 -4.66254141 12.6582171 -4.75 16.8125 C-4.77964844 17.50537109 -4.80929688 18.19824219 -4.83984375 18.91210938 C-4.90999628 20.60746213 -4.95732662 22.30373312 -5 24 C-5.66 23.67 -6.32 23.34 -7 23 C-7.05411124 20.58303128 -7.09372278 18.16728213 -7.125 15.75 C-7.14175781 15.06808594 -7.15851563 14.38617188 -7.17578125 13.68359375 C-7.21187061 9.96639006 -7.18648406 7.09307501 -5 4 C-2.9375 2.875 -2.9375 2.875 -1 2 C-0.67 1.34 -0.34 0.68 0 0 Z " fill="#AD4473" transform="translate(72,261)"/>
<path d="M0 0 C0.33 0 0.66 0 1 0 C1.17015625 0.97839844 1.3403125 1.95679688 1.515625 2.96484375 C2.7696054 9.84680762 4.03929395 16.10735262 7.328125 22.36328125 C7.54984375 22.90339844 7.7715625 23.44351563 8 24 C7.67 24.66 7.34 25.32 7 26 C6.34 24.35 5.68 22.7 5 21 C4.34 21 3.68 21 3 21 C2.80083984 20.04287109 2.80083984 20.04287109 2.59765625 19.06640625 C2.42105469 18.24011719 2.24445313 17.41382813 2.0625 16.5625 C1.88847656 15.73878906 1.71445313 14.91507813 1.53515625 14.06640625 C1.19247006 12.02338796 1.19247006 12.02338796 0 11 C-0.07226502 9.14712498 -0.0838122 7.29166122 -0.0625 5.4375 C-0.05347656 4.42558594 -0.04445313 3.41367188 -0.03515625 2.37109375 C-0.02355469 1.58863281 -0.01195313 0.80617187 0 0 Z " fill="#793150" transform="translate(120,169)"/>
<path d="M0 0 C2.97 0.33 5.94 0.66 9 1 C9 2.32 9 3.64 9 5 C9.78375 5.061875 10.5675 5.12375 11.375 5.1875 C12.674375 5.5896875 12.674375 5.5896875 14 6 C15.3125 8.5625 15.3125 8.5625 16 11 C12.3540648 9.30977276 9.09204498 7.1614937 5.75 4.9375 C4.67234375 4.22464844 3.5946875 3.51179688 2.484375 2.77734375 C1.66453125 2.19082031 0.8446875 1.60429688 0 1 C0 0.67 0 0.34 0 0 Z " fill="#9C3D68" transform="translate(244,82)"/>
<path d="M0 0 C0.33 0 0.66 0 1 0 C0.72208931 7.36463334 -1.94416845 12.87859906 -6 19 C-6.66 19.33 -7.32 19.66 -8 20 C-8.33 18.68 -8.66 17.36 -9 16 C-8.01 15.67 -7.02 15.34 -6 15 C-5.19436362 12.89415562 -5.19436362 12.89415562 -4.8125 10.4375 C-4.65394531 9.61121094 -4.49539062 8.78492188 -4.33203125 7.93359375 C-4.22246094 7.29550781 -4.11289063 6.65742188 -4 6 C-3.34 6 -2.68 6 -2 6 C-1.34 4.02 -0.68 2.04 0 0 Z " fill="#7C2E4F" transform="translate(257,170)"/>
<path d="M0 0 C0 0.33 0 0.66 0 1 C-19.0985551 3.54647401 -19.0985551 3.54647401 -25 0 C-16.50375215 -0.89073566 -8.48881273 -0.99418527 0 0 Z " fill="#A54971" transform="translate(218,241)"/>
<path d="M0 0 C4.85963179 0.60745397 8.7405518 2.72758967 13 5 C12.01 5.33 11.02 5.66 10 6 C9.34 5.67 8.68 5.34 8 5 C6.29297265 4.93003986 4.58331997 4.91559846 2.875 4.9375 C1.96492187 4.94652344 1.05484375 4.95554688 0.1171875 4.96484375 C-0.58148438 4.97644531 -1.28015625 4.98804688 -2 5 C-2.33 5.66 -2.66 6.32 -3 7 C-3.66 6.67 -4.32 6.34 -5 6 C-3.35 4.02 -1.7 2.04 0 0 Z " fill="#7B3554" transform="translate(157,229)"/>
<path d="M0 0 C0.33 0.99 0.66 1.98 1 3 C0.01 3.33 -0.98 3.66 -2 4 C-2.268125 4.598125 -2.53625 5.19625 -2.8125 5.8125 C-4.50798425 8.93576046 -7.01439213 10.18267347 -10 12 C-10.66 11.67 -11.32 11.34 -12 11 C-6.9059081 4.29540481 -6.9059081 4.29540481 -3.125 3.0625 C-2.42375 3.041875 -1.7225 3.02125 -1 3 C-0.67 2.01 -0.34 1.02 0 0 Z " fill="#AC4773" transform="translate(155,233)"/>
<path d="M0 0 C0.74958984 0.00451172 1.49917969 0.00902344 2.27148438 0.01367188 C4.11852383 0.02543646 5.96552213 0.04337135 7.8125 0.0625 C7.8125 0.3925 7.8125 0.7225 7.8125 1.0625 C3.47983562 1.73357433 -0.85351433 2.40001211 -5.1875 3.0625 C-5.95191406 3.17980469 -6.71632813 3.29710937 -7.50390625 3.41796875 C-10.1067273 3.80586217 -12.54907771 4.0625 -15.1875 4.0625 C-10.20080336 0.1075337 -6.19932901 -0.07038539 0 0 Z " fill="#BC4E82" transform="translate(55.1875,25.9375)"/>
<path d="M0 0 C0.66 0 1.32 0 2 0 C2.6875 2.8125 2.6875 2.8125 3 6 C1.6875 7.875 1.6875 7.875 0 9 C-0.66 9 -1.32 9 -2 9 C-2.33 9.99 -2.66 10.98 -3 12 C-4 10 -4 10 -3.22265625 7.6171875 C-2.83980469 6.71226562 -2.45695312 5.80734375 -2.0625 4.875 C-1.68222656 3.96492187 -1.30195313 3.05484375 -0.91015625 2.1171875 C-0.60980469 1.41851562 -0.30945313 0.71984375 0 0 Z " fill="#A23E6B" transform="translate(283,182)"/>
<path d="M0 0 C0.66 0.99 1.32 1.98 2 3 C3.32 2.67 4.64 2.34 6 2 C3.86725921 4.34601486 1.97462211 5.86264449 -1 7 C-3.75 7.125 -3.75 7.125 -6 7 C-6 6.34 -6 5.68 -6 5 C-5.34 5 -4.68 5 -4 5 C-4 4.34 -4 3.68 -4 3 C-2 1.375 -2 1.375 0 0 Z " fill="#AA3E6F" transform="translate(318,327)"/>
<path d="M0 0 C0.99 0.33 1.98 0.66 3 1 C1.61811547 4.21043882 0.07578097 6.04936365 -2.625 8.25 C-3.25664062 8.77078125 -3.88828125 9.2915625 -4.5390625 9.828125 C-5.02117187 10.21484375 -5.50328125 10.6015625 -6 11 C-5.62403791 8.21788056 -5.32681541 6.4120716 -3.5625 4.1875 C-2 3 -2 3 0 3 C0 2.01 0 1.02 0 0 Z " fill="#A04069" transform="translate(246,189)"/>
<path d="M0 0 C6.96792981 0.66361236 11.32694033 3.9674742 16 9 C15.67 9.99 15.34 10.98 15 12 C13 11 13 11 12.25 9.1875 C9.67696818 4.68469431 4.73344999 2.67062941 0 1 C0 0.67 0 0.34 0 0 Z " fill="#E4659A" transform="translate(312,27)"/>
<path d="M0 0 C3.33434242 1.4031723 5.05526479 2.96989805 7.1875 5.875 C7.95126953 6.89207031 7.95126953 6.89207031 8.73046875 7.9296875 C9.98995557 9.98361986 10.56190327 11.64588985 11 14 C9 14 9 14 7.5 12.875 C6 11 6 11 5.0625 8.125 C3.90908016 4.7325887 2.35389462 2.66774724 0 0 Z " fill="#792E50" transform="translate(322,30)"/>
<path d="M0 0 C2.0625 0.4375 2.0625 0.4375 4 1 C3.67 2.98 3.34 4.96 3 7 C3.99 7.33 4.98 7.66 6 8 C5.67 8.99 5.34 9.98 5 11 C4.34 11 3.68 11 3 11 C2.67 9.02 2.34 7.04 2 5 C1.34 5 0.68 5 0 5 C-0.5625 3.0625 -0.5625 3.0625 -1 1 C-0.67 0.67 -0.34 0.34 0 0 Z " fill="#E85C99" transform="translate(152,176)"/>
<path d="M0 0 C2.61106596 0.35284675 4.55190182 0.69593338 6.75 2.1875 C8.47091655 4.68282899 8.66943712 7.02493408 9 10 C5.73991357 6.83047153 2.77762123 3.60062011 0 0 Z " fill="#B54A75" transform="translate(260,93)"/>
<path d="M0 0 C-1.66751148 3.94139078 -4.22710649 6.7892812 -7 10 C-7.66 9.67 -8.32 9.34 -9 9 C-8.38245741 7.68397477 -7.75571258 6.37226444 -7.125 5.0625 C-6.77695313 4.33160156 -6.42890625 3.60070312 -6.0703125 2.84765625 C-4.39977725 -0.03615096 -3.3088125 0 0 0 Z " fill="#A04069" transform="translate(87,249)"/>
<path d="M0 0 C0.99 0.33 1.98 0.66 3 1 C2.04578192 2.14926266 1.08647955 3.29430541 0.125 4.4375 C-0.40867187 5.07558594 -0.94234375 5.71367187 -1.4921875 6.37109375 C-3 8 -3 8 -5 9 C-4.5206753 4.68607774 -3.2542015 2.83430453 0 0 Z " fill="#A5436F" transform="translate(101,232)"/>
<path d="M0 0 C1.03325757 3.09977271 1.04037295 5.07871122 0.9375 8.3125 C0.88607254 12.6209784 1.26577344 15.98960108 3 20 C-0.03378875 17.61844592 -0.93513253 16.51536908 -1.42578125 12.6171875 C-1.38839844 11.38226563 -1.35101563 10.14734375 -1.3125 8.875 C-1.28800781 7.63492187 -1.26351562 6.39484375 -1.23828125 5.1171875 C-1 2 -1 2 0 0 Z " fill="#E5629E" transform="translate(65,270)"/>
<path d="M0 0 C0.64324219 0.15339844 1.28648437 0.30679688 1.94921875 0.46484375 C5.89767537 1.15746674 9.8131887 1.35800881 13.8125 1.5625 C14.99489258 1.62727539 14.99489258 1.62727539 16.20117188 1.69335938 C18.13394215 1.79878321 20.06695026 1.89983094 22 2 C22 2.33 22 2.66 22 3 C18.89601022 3.08710289 15.79233452 3.14042309 12.6875 3.1875 C11.80642578 3.21263672 10.92535156 3.23777344 10.01757812 3.26367188 C8.74624023 3.27817383 8.74624023 3.27817383 7.44921875 3.29296875 C6.66893311 3.3086792 5.88864746 3.32438965 5.0847168 3.34057617 C2.50096147 2.91847304 1.63707833 1.98510058 0 0 Z " fill="#DA629B" transform="translate(188,209)"/>
<path d="M0 0 C-3.44621549 3.44621549 -8.25753764 5.05150753 -13 6 C-12 3 -12 3 -10.29296875 1.796875 C-9.59816406 1.45140625 -8.90335938 1.1059375 -8.1875 0.75 C-7.50042969 0.39421875 -6.81335938 0.0384375 -6.10546875 -0.328125 C-3.64922558 -1.11193544 -2.39957614 -0.84119973 0 0 Z " fill="#E7609B" transform="translate(186,105)"/>
<path d="M0 0 C0.598125 0.226875 1.19625 0.45375 1.8125 0.6875 C-2.8125 5.5625 -2.8125 5.5625 -6.1875 6.6875 C-5.78066505 4.32785727 -5.28935661 2.82815912 -3.875 0.875 C-2.1875 -0.3125 -2.1875 -0.3125 0 0 Z " fill="#AF4673" transform="translate(101.1875,288.3125)"/>
<path d="M0 0 C0.66 0 1.32 0 2 0 C2 0.66 2 1.32 2 2 C2.99 2.33 3.98 2.66 5 3 C6.75 6.375 6.75 6.375 8 10 C7.67 10.99 7.34 11.98 7 13 C6.34 11.02 5.68 9.04 5 7 C4.34 7 3.68 7 3 7 C0 2.61538462 0 2.61538462 0 0 Z " fill="#E7639C" transform="translate(271,103)"/>
<path d="M0 0 C5.41342681 1.14514798 7.9342948 2.34012809 11 7 C7.5625 6.1875 7.5625 6.1875 4 5 C3.67 4.01 3.34 3.02 3 2 C2.01 1.67 1.02 1.34 0 1 C0 0.67 0 0.34 0 0 Z " fill="#8A3D61" transform="translate(37,327)"/>
<path d="M0 0 C2.5 2.25 2.5 2.25 5 5 C5 6.32 5 7.64 5 9 C1.98467075 7.99489025 0.81317149 7.53844009 -1 5 C-0.6875 2.3125 -0.6875 2.3125 0 0 Z " fill="#AB416F" transform="translate(67,286)"/>
<path d="M0 0 C2.66666667 2.66666667 5.33333333 5.33333333 8 8 C4.32553433 7.29337199 1.26087791 5.81159884 -2 4 C-2.33 3.34 -2.66 2.68 -3 2 C-2.01 1.34 -1.02 0.68 0 0 Z " fill="#8B375C" transform="translate(173,201)"/>
<path d="M0 0 C0.66 0.33 1.32 0.66 2 1 C-0.97 3.97 -3.94 6.94 -7 10 C-7.66 9.01 -8.32 8.02 -9 7 C-8.01 6.67 -7.02 6.34 -6 6 C-5.67 5.01 -5.34 4.02 -5 3 C-2.5625 1.25 -2.5625 1.25 0 0 Z " fill="#803055" transform="translate(112,223)"/>
<path d="M0 0 C0.33 0.99 0.66 1.98 1 3 C-1.3125 6.1875 -1.3125 6.1875 -4 9 C-4.66 9 -5.32 9 -6 9 C-5.67 7.68 -5.34 6.36 -5 5 C-4.34 5 -3.68 5 -3 5 C-2.87625 4.360625 -2.7525 3.72125 -2.625 3.0625 C-2.41875 2.381875 -2.2125 1.70125 -2 1 C-1.34 0.67 -0.68 0.34 0 0 Z " fill="#E85E9A" transform="translate(158,126)"/>
<path d="M0 0 C0.33 0.66 0.66 1.32 1 2 C-0.21484375 4.6015625 -0.21484375 4.6015625 -1.9375 7.625 C-2.78634766 9.12933594 -2.78634766 9.12933594 -3.65234375 10.6640625 C-4.09707031 11.43492188 -4.54179688 12.20578125 -5 13 C-5.93423645 9.98968256 -6.04449911 9.13349732 -5 6 C-4.02149805 4.97895449 -3.02019573 3.9793879 -2 3 C-1.34 2.01 -0.68 1.02 0 0 Z " fill="#E4619C" transform="translate(131,108)"/>
<path d="M0 0 C1.63593506 5.27134629 -0.90039043 9.16176926 -3 14 C-4.37095624 10.30962722 -3.60010967 8.29116165 -2.0625 4.75 C-1.68222656 3.85796875 -1.30195313 2.9659375 -0.91015625 2.046875 C-0.60980469 1.37140625 -0.30945313 0.6959375 0 0 Z " fill="#7B2C51" transform="translate(152,131)"/>
<path d="M0 0 C0.66 0.33 1.32 0.66 2 1 C1.34 1.66 0.68 2.32 0 3 C-0.144375 3.680625 -0.28875 4.36125 -0.4375 5.0625 C-0.623125 5.701875 -0.80875 6.34125 -1 7 C-1.99 7.33 -2.98 7.66 -4 8 C-4.33 8.99 -4.66 9.98 -5 11 C-5.66 11 -6.32 11 -7 11 C-5.5140084 6.40693504 -3.14985318 3.56430755 0 0 Z " fill="#8D3D61" transform="translate(38,31)"/>
<path d="M0 0 C0.33 0.66 0.66 1.32 1 2 C0.22265625 3.9453125 0.22265625 3.9453125 -0.9375 6.125 C-1.31777344 6.84945312 -1.69804687 7.57390625 -2.08984375 8.3203125 C-2.39019531 8.87460938 -2.69054687 9.42890625 -3 10 C-3.99 10 -4.98 10 -6 10 C-4.27256146 6.38060496 -2.52349243 3.12432397 0 0 Z " fill="#943B62" transform="translate(274,201)"/>
<path d="M0 0 C1.32 0.33 2.64 0.66 4 1 C2.35 2.65 0.7 4.3 -1 6 C-1.99 5.67 -2.98 5.34 -4 5 C-2.68 3.35 -1.36 1.7 0 0 Z " fill="#B44D79" transform="translate(169,110)"/>
<path d="M0 0 C0.66 0.33 1.32 0.66 2 1 C-0.6875 3.125 -0.6875 3.125 -4 5 C-6.875 4.25 -6.875 4.25 -9 3 C-9 2.34 -9 1.68 -9 1 C-7.88625 1.020625 -6.7725 1.04125 -5.625 1.0625 C-2.16784079 1.26380718 -2.16784079 1.26380718 0 0 Z " fill="#9F3863" transform="translate(161,82)"/>
<path d="M0 0 C-1.29299694 2.88437779 -2.65941363 4.87219421 -5 7 C-5.99 6.67 -6.98 6.34 -8 6 C-7.67 5.34 -7.34 4.68 -7 4 C-6.01 4 -5.02 4 -4 4 C-4 3.01 -4 2.02 -4 1 C-2 0 -2 0 0 0 Z " fill="#E75997" transform="translate(121,213)"/>
<path d="M0 0 C0.66 0.33 1.32 0.66 2 1 C1.69381595 4.67420866 1.24228216 5.78135513 -1.5625 8.3125 C-2.366875 8.869375 -3.17125 9.42625 -4 10 C-3.67 8.35 -3.34 6.7 -3 5 C-2.01 5 -1.02 5 0 5 C0 3.35 0 1.7 0 0 Z " fill="#BA5383" transform="translate(130,199)"/>
<path d="M0 0 C3 1 3 1 4 3 C4.99 3.33 5.98 3.66 7 4 C7 5.32 7 6.64 7 8 C2.60841671 6.5361389 2.12052567 4.02168662 0 0 Z " fill="#E46098" transform="translate(157,188)"/>
<path d="M0 0 C0 0.99 0 1.98 0 3 C-2.5 5.1875 -2.5 5.1875 -5 7 C-5 6.34 -5 5.68 -5 5 C-5.66 5 -6.32 5 -7 5 C-6.67 4.01 -6.34 3.02 -6 2 C-5.01 2.33 -4.02 2.66 -3 3 C-2.01 2.01 -1.02 1.02 0 0 Z " fill="#9D3A62" transform="translate(329,322)"/>
<path d="M0 0 C2.475 0.495 2.475 0.495 5 1 C5 1.99 5 2.98 5 4 C4.34 4 3.68 4 3 4 C2.34 4.66 1.68 5.32 1 6 C0.67 4.02 0.34 2.04 0 0 Z " fill="#E65793" transform="translate(244,186)"/>
<path d="M0 0 C2.475 0.99 2.475 0.99 5 2 C4.67 2.99 4.34 3.98 4 5 C1.03 4.505 1.03 4.505 -2 4 C-1.34 2.68 -0.68 1.36 0 0 Z " fill="#AE3E6B" transform="translate(164,114)"/>
<path d="M0 0 C0.66 0.33 1.32 0.66 2 1 C-0.82553984 5.23830976 -3.12180888 4.97715348 -8 6 C-5.63404067 3.38499232 -3.13950774 1.61000397 0 0 Z " fill="#5D213C" transform="translate(249,226)"/>
<path d="M0 0 C1.37562854 1.28965176 2.70766393 2.62689293 4 4 C4 4.66 4 5.32 4 6 C3.34 6 2.68 6 2 6 C2 5.34 2 4.68 2 4 C0.68 4.33 -0.64 4.66 -2 5 C-1.34 3.35 -0.68 1.7 0 0 Z " fill="#E95A96" transform="translate(244,118)"/>
<path d="M0 0 C0 3 0 3 -1.3125 4.38671875 C-2.875 5.59114583 -4.4375 6.79557292 -6 8 C-5.34 5.69 -4.68 3.38 -4 1 C-2.68 0.67 -1.36 0.34 0 0 Z " fill="#863254" transform="translate(144,95)"/>
<path d="M0 0 C1.125 3.75 1.125 3.75 0 6 C-0.66 6 -1.32 6 -2 6 C-2.66 7.32 -3.32 8.64 -4 10 C-3.43454163 6.04179141 -2.19097652 3.3340947 0 0 Z " fill="#E6649B" transform="translate(281,191)"/>
<path d="M0 0 C-2.97 2.475 -2.97 2.475 -6 5 C-6.66 4.67 -7.32 4.34 -8 4 C-7.25 2.0625 -7.25 2.0625 -6 0 C-3.40292416 -1.05506206 -2.5386068 -1.2693034 0 0 Z " fill="#863054" transform="translate(155,88)"/>
</svg>
